<?xml version="1.0" standalone="no"?>
<svg xmlns:xlink="http://www.w3.org/1999/xlink" id="wave" style="transform:rotate(0deg); transition: 0.3s" viewBox="0 0 1440 170" version="1.1" xmlns="http://www.w3.org/2000/svg"><defs><linearGradient id="sw-gradient-0" x1="0" x2="0" y1="1" y2="0"><stop stop-color="rgba(255, 232, 180, 1)" offset="0%"/><stop stop-color="rgba(255, 232, 180, 1)" offset="100%"/></linearGradient></defs><path style="transform:translate(0, 0px); opacity:1" fill="url(#sw-gradient-0)" d="M0,119L40,110.5C80,102,160,85,240,70.8C320,57,400,45,480,56.7C560,68,640,102,720,121.8C800,142,880,147,960,130.3C1040,113,1120,74,1200,48.2C1280,23,1360,11,1440,11.3C1520,11,1600,23,1680,34C1760,45,1840,57,1920,59.5C2000,62,2080,57,2160,45.3C2240,34,2320,17,2400,17C2480,17,2560,34,2640,59.5C2720,85,2800,119,2880,113.3C2960,108,3040,62,3120,53.8C3200,45,3280,74,3360,73.7C3440,74,3520,45,3600,31.2C3680,17,3760,17,3840,36.8C3920,57,4000,96,4080,119C4160,142,4240,147,4320,150.2C4400,153,4480,153,4560,136C4640,119,4720,85,4800,76.5C4880,68,4960,85,5040,87.8C5120,91,5200,79,5280,76.5C5360,74,5440,79,5520,93.5C5600,108,5680,130,5720,141.7L5760,153L5760,170L5720,170C5680,170,5600,170,5520,170C5440,170,5360,170,5280,170C5200,170,5120,170,5040,170C4960,170,4880,170,4800,170C4720,170,4640,170,4560,170C4480,170,4400,170,4320,170C4240,170,4160,170,4080,170C4000,170,3920,170,3840,170C3760,170,3680,170,3600,170C3520,170,3440,170,3360,170C3280,170,3200,170,3120,170C3040,170,2960,170,2880,170C2800,170,2720,170,2640,170C2560,170,2480,170,2400,170C2320,170,2240,170,2160,170C2080,170,2000,170,1920,170C1840,170,1760,170,1680,170C1600,170,1520,170,1440,170C1360,170,1280,170,1200,170C1120,170,1040,170,960,170C880,170,800,170,720,170C640,170,560,170,480,170C400,170,320,170,240,170C160,170,80,170,40,170L0,170Z"/></svg>